<svg xmlns="http://www.w3.org/2000/svg" width="24" height="24" viewBox="0 0 24 24" fill="#FF0000">
  <path d="M23.498 6.186a3.016 3.016 0 0 1-2.122-.878l-.007-.007c-.76-.8-1.194-1.857-1.194-3.015 0-.335.027-.664.082-.985V1h-4.929v15.344c0 1.671-1.354 3.025-3.025 3.025-1.671 0-3.025-1.354-3.025-3.025 0-1.671 1.354-3.025 3.025-3.025.335 0 .659.055.96.156v-4.972c-.301-.041-.61-.062-.921-.062-4.421 0-8.004 3.583-8.004 8.003 0 4.421 3.583 8.004 8.004 8.004s8.003-3.583 8.003-8.004V9.331c1.655 1.184 3.687 1.886 5.888 1.886v-5.031z"/>
</svg>
